<?xml version="1.0" encoding="utf-8"?>
<!-- Generator: Adobe Illustrator 19.0.0, SVG Export Plug-In . SVG Version: 6.00 Build 0)  -->
<svg version="1.1" id="Layer_1" xmlns="http://www.w3.org/2000/svg" xmlns:xlink="http://www.w3.org/1999/xlink" x="0px" y="0px"
	 viewBox="0 0 125.9 111.9" style="enable-background:new 0 0 125.9 111.9;" xml:space="preserve">
<style type="text/css">
	.Drop_x0020_Shadow{fill:none;}
	.Outer_x0020_Glow_x0020_5_x0020_pt{fill:none;}
	.Blue_x0020_Neon{fill:none;stroke:#8AACDA;stroke-width:7;stroke-linecap:round;stroke-linejoin:round;}
	.Chrome_x0020_Highlight{fill:url(#SVGID_1_);stroke:#FFFFFF;stroke-width:0.3629;stroke-miterlimit:1;}
	.Jive_GS{fill:#FFDD00;}
	.Alyssa_GS{fill:#A6D0E4;}
	.st0{fill:#D32F2F;}
</style>
<linearGradient id="SVGID_1_" gradientUnits="userSpaceOnUse" x1="-526.8781" y1="-193.6735" x2="-526.8781" y2="-194.6735">
	<stop  offset="0" style="stop-color:#656565"/>
	<stop  offset="0.618" style="stop-color:#1B1B1B"/>
	<stop  offset="0.6292" style="stop-color:#545454"/>
	<stop  offset="0.9831" style="stop-color:#3E3E3E"/>
</linearGradient>
<path id="XMLID_14_" class="st0" d="M108.8,33.6H91.6V10.7H11.4C5.2,10.7,0,15.8,0,22.1v63h11.4c0,9.5,7.7,17.2,17.2,17.2
	s17.2-7.7,17.2-17.2h34.3c0,9.5,7.7,17.2,17.2,17.2s17.2-7.7,17.2-17.2h11.4V56.5L108.8,33.6z M28.6,93.7c-4.8,0-8.6-3.8-8.6-8.6
	s3.8-8.6,8.6-8.6s8.6,3.8,8.6,8.6S33.4,93.7,28.6,93.7z M105.9,42.2l11.2,14.3H91.6V42.2H105.9z M97.3,93.7c-4.8,0-8.6-3.8-8.6-8.6
	s3.8-8.6,8.6-8.6s8.6,3.8,8.6,8.6S102.1,93.7,97.3,93.7z"/>
</svg>
