<?xml version="1.0" encoding="utf-8"?>
<!-- Generator: Adobe Illustrator 19.0.0, SVG Export Plug-In . SVG Version: 6.00 Build 0)  -->
<svg version="1.1" id="Layer_1" xmlns="http://www.w3.org/2000/svg" xmlns:xlink="http://www.w3.org/1999/xlink" x="0px" y="0px"
	 viewBox="0 0 146.7 122.3" style="enable-background:new 0 0 146.7 122.3;" xml:space="preserve">
<style type="text/css">
	.Drop_x0020_Shadow{fill:none;}
	.Outer_x0020_Glow_x0020_5_x0020_pt{fill:none;}
	.Blue_x0020_Neon{fill:none;stroke:#8AACDA;stroke-width:7;stroke-linecap:round;stroke-linejoin:round;}
	.Chrome_x0020_Highlight{fill:url(#SVGID_1_);stroke:#FFFFFF;stroke-width:0.3629;stroke-miterlimit:1;}
	.Jive_GS{fill:#FFDD00;}
	.Alyssa_GS{fill:#A6D0E4;}
	.st0{fill:none;}
	.st1{fill:#BDBCBC;}
	.st2{fill:#8C8C8C;}
	.st3{fill:#212120;}
	.st4{fill:#EE4538;}
	.st5{fill:#FFFFFF;}
</style>
<linearGradient id="SVGID_1_" gradientUnits="userSpaceOnUse" x1="56.9164" y1="45.4187" x2="56.9164" y2="44.4187">
	<stop  offset="0" style="stop-color:#656565"/>
	<stop  offset="0.618" style="stop-color:#1B1B1B"/>
	<stop  offset="0.6292" style="stop-color:#545454"/>
	<stop  offset="0.9831" style="stop-color:#3E3E3E"/>
</linearGradient>
<g>
	<rect x="0.5" y="0.5" class="st0" width="145.7" height="121.3"/>
	<g>
		<g>
			<circle class="st1" cx="72.9" cy="56.6" r="27.2"/>
			<circle class="st2" cx="72.9" cy="56.6" r="13.6"/>
		</g>
		<path class="st3" d="M112.7,60.8h-2.3V48.4h-2.3v12.4h-2.3V48.4h-2.3v12.4c0,3.8,1.9,6.8,4.2,7v16h2.8v-16c2.4-0.2,4.2-3.3,4.2-7
			V48.4h-2.3V60.8z M118.4,55.5v14.2h2.8v14.2h2.8V48.4C120.9,48.4,118.4,52.4,118.4,55.5z"/>
	</g>
	<g>
		<path class="st4" d="M22.6,71.4v3c0,1.1,0.9,2,2,2h2v3c0,2.2,1.8,4,4,4h6c2.2,0,4-1.8,4-4v-10h-16C23.5,69.4,22.6,70.3,22.6,71.4z
			"/>
		<rect x="24.6" y="71.4" class="st5" width="2" height="3"/>
	</g>
</g>
</svg>
