<?xml version="1.0" encoding="utf-8"?>
<!-- Generator: Adobe Illustrator 19.0.0, SVG Export Plug-In . SVG Version: 6.00 Build 0)  -->
<svg version="1.1" id="Layer_1" xmlns="http://www.w3.org/2000/svg" xmlns:xlink="http://www.w3.org/1999/xlink" x="0px" y="0px"
	 viewBox="0 0 53.5 94.4" style="enable-background:new 0 0 53.5 94.4;" xml:space="preserve">
<style type="text/css">
	.Drop_x0020_Shadow{fill:none;}
	.Outer_x0020_Glow_x0020_5_x0020_pt{fill:none;}
	.Blue_x0020_Neon{fill:none;stroke:#8AACDA;stroke-width:7;stroke-linecap:round;stroke-linejoin:round;}
	.Chrome_x0020_Highlight{fill:url(#SVGID_1_);stroke:#FFFFFF;stroke-width:0.3629;stroke-miterlimit:1;}
	.Jive_GS{fill:#FFDD00;}
	.Alyssa_GS{fill:#A6D0E4;}
	.st0{clip-path:url(#XMLID_45_);enable-background:new    ;}
	.st1{clip-path:url(#XMLID_46_);}
	.st2{clip-path:url(#XMLID_48_);}
	.st3{clip-path:url(#XMLID_49_);fill:#10B6A0;}
	.st4{clip-path:url(#XMLID_51_);fill:#EE4438;}
	.st5{clip-path:url(#XMLID_52_);fill:#D32F2F;}
	.st6{fill:none;stroke:#D32F2F;stroke-width:1.1035;stroke-miterlimit:10;}
	.st7{clip-path:url(#XMLID_54_);fill:#EE4438;}
	.st8{clip-path:url(#XMLID_57_);fill:#D32F2F;}
	.st9{clip-path:url(#XMLID_59_);fill:#EE4438;}
	.st10{clip-path:url(#XMLID_61_);fill:#D32F2F;}
	.st11{clip-path:url(#XMLID_62_);fill:#0D47A1;}
	.st12{clip-path:url(#XMLID_63_);fill:#0D47A1;}
</style>
<linearGradient id="SVGID_1_" gradientUnits="userSpaceOnUse" x1="-74.3052" y1="-46.5088" x2="-74.3052" y2="-47.5088">
	<stop  offset="0" style="stop-color:#656565"/>
	<stop  offset="0.618" style="stop-color:#1B1B1B"/>
	<stop  offset="0.6292" style="stop-color:#545454"/>
	<stop  offset="0.9831" style="stop-color:#3E3E3E"/>
</linearGradient>
<g id="XMLID_53_">
	<defs>
		<rect id="XMLID_20_" x="2.8" y="26.4" width="48" height="65.3"/>
	</defs>
	<clipPath id="XMLID_45_">
		<use xlink:href="#XMLID_20_"  style="overflow:visible;"/>
	</clipPath>
	<g id="XMLID_55_" class="st0">
		<g id="XMLID_56_">
			<defs>
				<rect id="XMLID_21_" x="1.7" y="25.9" width="51.3" height="66.2"/>
			</defs>
			<clipPath id="XMLID_46_">
				<use xlink:href="#XMLID_21_"  style="overflow:visible;"/>
			</clipPath>
			<g id="XMLID_58_" class="st1">
				<defs>
					<path id="XMLID_22_" d="M3.9,47.6c-2.2,9.6-1.1,27,2.1,36.8L8.3,91c0.1,0.4,0.5,0.6,0.9,0.6h29.6c0,0,4.5,0.1,5.2-0.3
						c0.7-0.4,2-3.5,2-3.5l1.2-2.6c5.8-13.2,4.6-35.3-3-52.4l-2.7-6c-0.2-0.3-0.5-0.5-0.8-0.5H26.9c-7.8,0-14.7,0.4-15.2,1
						C9.7,29.3,5.4,40.3,3.9,47.6z"/>
				</defs>
				<clipPath id="XMLID_48_">
					<use xlink:href="#XMLID_22_"  style="overflow:visible;"/>
				</clipPath>
				<g id="XMLID_60_" class="st2">
					<defs>
						<rect id="XMLID_23_" x="2.8" y="25.9" width="48" height="66.2"/>
					</defs>
					<clipPath id="XMLID_49_">
						<use xlink:href="#XMLID_23_"  style="overflow:visible;"/>
					</clipPath>
					<rect id="XMLID_24_" x="0" y="23.6" class="st3" width="53.5" height="70.8"/>
				</g>
			</g>
		</g>
	</g>
</g>
<g id="XMLID_50_">
	<defs>
		<path id="XMLID_18_" d="M25.7,11.9c-0.2,5,0,9.4,0.9,9.9c0.7,0.3,1.3-3.9,1.3-9.2c0-5.4-0.3-9.9-0.7-9.9
			C26.7,2.8,26,6.9,25.7,11.9"/>
	</defs>
	<clipPath id="XMLID_51_">
		<use xlink:href="#XMLID_18_"  style="overflow:visible;"/>
	</clipPath>
	<rect id="XMLID_19_" x="22.8" y="0" class="st4" width="7.7" height="24.6"/>
</g>
<g id="XMLID_47_">
	<defs>
		<path id="XMLID_16_" d="M25.7,11.9c-0.2,5,0,9.4,0.9,9.9c0.7,0.3,1.3-3.9,1.3-9.2c0-5.4-0.3-9.9-0.7-9.9
			C26.7,2.8,26,6.9,25.7,11.9z"/>
	</defs>
	<clipPath id="XMLID_52_">
		<use xlink:href="#XMLID_16_"  style="overflow:visible;"/>
	</clipPath>
	<rect id="XMLID_17_" x="22.8" y="0" class="st5" width="7.7" height="24.6"/>
</g>
<path id="XMLID_15_" class="st6" d="M25.7,11.9c-0.2,5,0,9.4,0.9,9.9c0.7,0.3,1.3-3.9,1.3-9.2c0-5.4-0.3-9.9-0.7-9.9
	C26.7,2.8,26,6.9,25.7,11.9z"/>
<g id="XMLID_43_">
	<defs>
		<path id="XMLID_13_" d="M13.3,16.6c0.3,2.4,1.6,4.6,2.6,5.1c1.1,0.6,1.3-0.6,0.5-3.2C14.7,12.9,12.2,11.5,13.3,16.6"/>
	</defs>
	<clipPath id="XMLID_54_">
		<use xlink:href="#XMLID_13_"  style="overflow:visible;"/>
	</clipPath>
	<rect id="XMLID_14_" x="10.2" y="10.7" class="st7" width="9.4" height="14"/>
</g>
<g id="XMLID_40_">
	<defs>
		<path id="XMLID_11_" d="M13.3,16.6c0.3,2.4,1.6,4.6,2.6,5.1c1.1,0.6,1.3-0.6,0.5-3.2C14.7,12.9,12.2,11.5,13.3,16.6z"/>
	</defs>
	<clipPath id="XMLID_57_">
		<use xlink:href="#XMLID_11_"  style="overflow:visible;"/>
	</clipPath>
	<rect id="XMLID_12_" x="10.2" y="10.7" class="st8" width="9.4" height="14"/>
</g>
<path id="XMLID_10_" class="st6" d="M13.3,16.6c0.3,2.4,1.6,4.6,2.6,5.1c1.1,0.6,1.3-0.6,0.5-3.2C14.7,12.9,12.2,11.5,13.3,16.6z"/>
<g id="XMLID_36_">
	<defs>
		<path id="XMLID_8_" d="M36.8,16.8c-2.3,5.4-2.3,5.4-0.4,5.4c1.4,0,3.9-8.5,2.8-9.4C39.1,12.5,37.9,14.3,36.8,16.8"/>
	</defs>
	<clipPath id="XMLID_59_">
		<use xlink:href="#XMLID_8_"  style="overflow:visible;"/>
	</clipPath>
	<rect id="XMLID_9_" x="32.3" y="10" class="st9" width="10" height="15"/>
</g>
<g id="XMLID_33_">
	<defs>
		<path id="XMLID_6_" d="M36.8,16.8c-2.3,5.4-2.3,5.4-0.4,5.4c1.4,0,3.9-8.5,2.8-9.4C39.1,12.5,37.9,14.3,36.8,16.8z"/>
	</defs>
	<clipPath id="XMLID_61_">
		<use xlink:href="#XMLID_6_"  style="overflow:visible;"/>
	</clipPath>
	<rect id="XMLID_7_" x="32.3" y="10" class="st10" width="10" height="15"/>
</g>
<path id="XMLID_5_" class="st6" d="M36.8,16.8c-2.3,5.4-2.3,5.4-0.4,5.4c1.4,0,3.9-8.5,2.8-9.4C39.1,12.5,37.9,14.3,36.8,16.8z"/>
<g id="XMLID_29_">
	<defs>
		<path id="XMLID_3_" d="M45.4,51c0,1.4-2.9,1.1-2.9,1.1s-26-1-32.7-0.4c-0.8,0.1-1.3,0.2-1.5,0.2c-0.2,0-0.6,0-0.6-0.9
			c-0.1-2.4,1.2-8.3,3.1-13.7c1.8-4.9,2.2-5.1,8.9-5.7c15.4-1.1,17.3-1,19.4,1.1C41.1,34.7,45.4,47.1,45.4,51z"/>
	</defs>
	<clipPath id="XMLID_62_">
		<use xlink:href="#XMLID_3_"  style="overflow:visible;"/>
	</clipPath>
	<rect id="XMLID_4_" x="4.9" y="28.1" class="st11" width="43.3" height="26.8"/>
</g>
<g id="XMLID_26_">
	<defs>
		<path id="XMLID_1_" d="M45.9,68.4c0.6,0,1,0.5,0.9,1.1l-0.7,4.6c-2.1,12.5-2.2,12.6-19.7,13.1l-14.8,0.4c-0.4,0-0.8-0.3-0.9-0.6
			l-2-6.6c-2.1-7.7-2.7-12.8-1.2-13.1c0.2,0,0.8,0.2,0.8,0.2s0.6,0.2,1.2,0.3c2.9,0.4,10.6,0.7,18.9,0.7H45.9z"/>
	</defs>
	<clipPath id="XMLID_63_">
		<use xlink:href="#XMLID_1_"  style="overflow:visible;"/>
	</clipPath>
	<rect id="XMLID_2_" x="3.9" y="64.6" class="st12" width="45.7" height="25.8"/>
</g>
</svg>
